<svg xmlns:dc="http://purl.org/dc/elements/1.1/" xmlns:cc="http://creativecommons.org/ns#" xmlns:rdf="http://www.w3.org/1999/02/22-rdf-syntax-ns#" xmlns:svg="http://www.w3.org/2000/svg" xmlns="http://www.w3.org/2000/svg" xmlns:sodipodi="http://sodipodi.sourceforge.net/DTD/sodipodi-0.dtd" xmlns:inkscape="http://www.inkscape.org/namespaces/inkscape" version="1.1" x="0px" y="0px" viewBox="0 0 100 100"><g transform="translate(0,-952.36218)"><path style="font-size:medium;font-style:normal;font-variant:normal;font-weight:normal;font-stretch:normal;text-indent:0;text-align:start;text-decoration:none;line-height:normal;letter-spacing:normal;word-spacing:normal;text-transform:none;direction:ltr;block-progression:tb;writing-mode:lr-tb;text-anchor:start;baseline-shift:baseline;opacity:1;color:#000000;fill:#000000;fill-opacity:1;stroke:none;stroke-width:2;marker:none;visibility:visible;display:inline;overflow:visible;enable-background:accumulate;font-family:Sans;-inkscape-font-specification:Sans" d="M 18 7 C 13.585297 7 10 10.5853 10 15 L 10 48.8125 C 8.182627 50.2775 7 52.4859 7 55 L 7 78 C 7.000052 78.5236 7.476416 78.9999 8 79 L 13 79 L 13 89 C 13 91.1987 14.801297 93 17 93 L 25 93 C 27.198703 93 29 91.1987 29 89 L 29 79 L 39.8125 79 L 60.1875 79 L 71 79 L 71 89 C 71 91.1987 72.801297 93 75 93 L 83 93 C 85.198703 93 87 91.1987 87 89 L 87 79 L 92 79 C 92.523584 78.999948 92.999948 78.523584 93 78 L 93 55 C 93 52.48587 91.817373 50.277515 90 48.8125 L 90 15 C 90 10.5853 86.414703 7 82 7 L 18 7 z M 18 9 L 82 9 C 85.341297 9 88 11.6587 88 15 L 88 21 L 12 21 L 12 15 C 12 11.6587 14.658703 9 18 9 z M 12 23 L 49 23 L 49 47 L 15 47 L 12 47 L 12 23 z M 51 23 L 88 23 L 88 47 L 85 47 L 51 47 L 51 23 z M 15 49 L 85 49 C 88.341297 49 91 51.6587 91 55 L 91 77 L 61 77 L 61 71 C 60.999948 70.476416 60.523584 70.000052 60 70 L 40 70 C 39.476416 70 39.000052 70.4764 39 71 L 39 77 L 9 77 L 9 55 C 9 51.6587 11.658703 49 15 49 z M 22 56 C 18.145854 56 15 59.11465 15 62.96875 C 15 66.82285 18.145854 70 22 70 C 25.854146 70 29.03125 66.82285 29.03125 62.96875 C 29.03125 59.11465 25.854146 56 22 56 z M 78 56 C 74.145854 56 70.96875 59.11465 70.96875 62.96875 C 70.96875 66.82285 74.145854 70 78 70 C 81.854146 70 85 66.82285 85 62.96875 C 85 59.11465 81.854146 56 78 56 z M 22 58 C 24.773269 58 27 60.19555 27 62.96875 C 27 65.74205 24.773269 68 22 68 C 19.226731 68 17.03125 65.74205 17.03125 62.96875 C 17.03125 60.19555 19.226731 58 22 58 z M 78 58 C 80.773269 58 82.96875 60.19555 82.96875 62.96875 C 82.96875 65.74205 80.773269 68 78 68 C 75.226731 68 73 65.74205 73 62.96875 C 73 60.19555 75.226731 58 78 58 z M 41 72 L 59 72 L 59 77 L 41 77 L 41 72 z M 15 79 L 27 79 L 27 89 C 27 90.1253 26.125297 91 25 91 L 17 91 C 15.874703 91 15 90.1253 15 89 L 15 79 z M 73 79 L 85 79 L 85 89 C 85 90.1253 84.125297 91 83 91 L 75 91 C 73.874703 91 73 90.1253 73 89 L 73 79 z " transform="translate(0,952.36218)"></path></g></svg>